<svg width="100" height="100" viewBox="0 0 100 100" fill="none" xmlns="http://www.w3.org/2000/svg">
<circle cx="50" cy="50" r="49.6" fill="white" stroke="black" stroke-width="0.8"/>
<path d="M5.5 27.5C14 25 21.5 27.5 32.3221 31.1151C43.1441 34.7302 50.321 26.7147 52.7208 24.5545C55.1207 22.3943 56.2406 14.6736 51.1209 12.6334C46.0012 10.5932 37.0418 15.1937 38.6017 28.3148C38.7969 29.9566 40.5974 49.8381 36.9618 56.8774C33.842 62.918 26.7224 61.7579 26.7224 61.7579C26.7224 61.7579 20.8828 61.7579 18.2029 55.9174C14.975 48.8822 22.5 34.5078 39.0265 47C40.7508 48.3034 41.9408 51.5 48.9408 54.5M48.9408 54.5C53.5805 59.3804 66.7009 57.881 68.9408 47M48.9408 54.5C48.9408 54.5 44.1015 46.2365 51.1209 38.6758C58.1403 31.1151 71.1807 36.119 68.9408 47M68.9408 47C68.2875 57.9877 69.7404 77.5 61.9602 84.5199C56.4408 89.5 51.1209 91.006 44.4408 88C40.5332 86.2416 39.3216 79.2602 40.0416 77.5C40.7615 75.7398 42.9408 68 52.7208 67.1583C65.394 66.0677 76.9807 64.9914 85.9587 58.5176C97.0777 50.5 96.651 38.3348 97.0777 34.5078" stroke="black" stroke-width="0.8"/>
</svg>
