<svg width="97" height="122" viewBox="0 0 97 122" fill="none" xmlns="http://www.w3.org/2000/svg">
<path d="M30.4375 59.4688H50.3438V67H21.0625V21.5H30.4375V59.4688Z" fill="black"/>
<path d="M92.0625 99.25C90.375 101.271 87.9896 102.844 84.9062 103.969C81.8229 105.073 78.4062 105.625 74.6562 105.625C70.7188 105.625 67.2604 104.771 64.2812 103.062C61.3229 101.333 59.0312 98.8333 57.4062 95.5625C55.8021 92.2917 54.9792 88.4479 54.9375 84.0312V80.9375C54.9375 76.3958 55.6979 72.4688 57.2188 69.1562C58.7604 65.8229 60.9688 63.2812 63.8438 61.5312C66.7396 59.7604 70.125 58.875 74 58.875C79.3958 58.875 83.6146 60.1667 86.6562 62.75C89.6979 65.3125 91.5 69.0521 92.0625 73.9688H82.9375C82.5208 71.3646 81.5938 69.4583 80.1562 68.25C78.7396 67.0417 76.7812 66.4375 74.2812 66.4375C71.0938 66.4375 68.6667 67.6354 67 70.0312C65.3333 72.4271 64.4896 75.9896 64.4688 80.7188V83.625C64.4688 88.3958 65.375 92 67.1875 94.4375C69 96.875 71.6562 98.0938 75.1562 98.0938C78.6771 98.0938 81.1875 97.3438 82.6875 95.8438V88H74.1562V81.0938H92.0625V99.25Z" fill="black"/>
<path d="M63 1H96V46" stroke="#DF9393"/>
<path d="M34 121H1V76" stroke="#DF9393"/>
</svg>
